<svg xmlns="http://www.w3.org/2000/svg" xmlns:xlink="http://www.w3.org/1999/xlink" width="500" zoomAndPan="magnify" viewBox="0 0 375 374.999991" height="500" preserveAspectRatio="xMidYMid meet" version="1.0"><defs><g/><clipPath id="fa5f741142"><path d="M 139.25 88 L 230 88 L 230 95 L 139.25 95 Z M 139.25 88 " clip-rule="nonzero"/></clipPath><clipPath id="c081baba50"><path d="M 163 213 L 207 213 L 207 221.851562 L 163 221.851562 Z M 163 213 " clip-rule="nonzero"/></clipPath><clipPath id="c270cfe80e"><path d="M 181 213 L 188 213 L 188 221.851562 L 181 221.851562 Z M 181 213 " clip-rule="nonzero"/></clipPath><clipPath id="97614bb631"><path d="M 218 71.851562 L 228 71.851562 L 228 82 L 218 82 Z M 218 71.851562 " clip-rule="nonzero"/></clipPath><clipPath id="fe3eec1980"><path d="M 139.25 91 L 230 91 L 230 147 L 139.25 147 Z M 139.25 91 " clip-rule="nonzero"/></clipPath><clipPath id="415969bddd"><path d="M 47 49 L 326 49 L 326 288 L 47 288 Z M 47 49 " clip-rule="nonzero"/></clipPath><clipPath id="8eec3875f4"><path d="M 400.980469 171.191406 L 186.726562 385.445312 L -32.828125 165.886719 L 181.425781 -48.367188 Z M 400.980469 171.191406 " clip-rule="nonzero"/></clipPath><clipPath id="18b3ff373d"><path d="M 400.980469 171.191406 L 186.726562 385.445312 L -32.828125 165.886719 L 181.425781 -48.367188 Z M 400.980469 171.191406 " clip-rule="nonzero"/></clipPath><clipPath id="8948324371"><path d="M 400.980469 171.191406 L 186.726562 385.445312 L -32.828125 165.886719 L 181.425781 -48.367188 Z M 400.980469 171.191406 " clip-rule="nonzero"/></clipPath></defs><path fill="currentColor" d="M 185.289062 109.410156 C 184.839844 109.410156 184.375 109.449219 183.898438 109.527344 C 181.519531 109.90625 179.140625 111.199219 177.199219 113.164062 C 175.257812 115.128906 173.992188 117.519531 173.632812 119.902344 C 173.285156 122.226562 173.855469 124.257812 175.230469 125.617188 C 176.605469 126.980469 178.640625 127.519531 180.960938 127.148438 C 183.339844 126.765625 185.71875 125.476562 187.660156 123.511719 C 189.601562 121.546875 190.867188 119.152344 191.226562 116.773438 C 191.574219 114.449219 191.007812 112.417969 189.628906 111.058594 C 188.539062 109.976562 187.027344 109.410156 185.289062 109.410156 Z M 179.566406 128.242188 C 177.570312 128.242188 175.820312 127.578125 174.542969 126.3125 C 172.9375 124.726562 172.273438 122.398438 172.667969 119.757812 C 173.054688 117.171875 174.417969 114.585938 176.503906 112.476562 C 178.589844 110.367188 181.160156 108.972656 183.742188 108.558594 C 186.378906 108.136719 188.714844 108.777344 190.316406 110.363281 C 191.921875 111.949219 192.589844 114.277344 192.191406 116.917969 C 191.804688 119.503906 190.445312 122.089844 188.355469 124.199219 L 188.007812 123.855469 L 188.355469 124.199219 C 186.269531 126.308594 183.699219 127.699219 181.117188 128.117188 C 180.585938 128.199219 180.066406 128.242188 179.566406 128.242188 " fill-opacity="1" fill-rule="nonzero"/><path fill="currentColor" d="M 171.214844 130.164062 C 171.09375 130.164062 170.96875 130.121094 170.875 130.027344 C 170.679688 129.835938 170.675781 129.527344 170.867188 129.335938 L 223.03125 75.847656 C 223.21875 75.652344 223.527344 75.648438 223.722656 75.835938 C 223.914062 76.027344 223.917969 76.335938 223.730469 76.527344 L 171.566406 130.015625 C 171.46875 130.117188 171.34375 130.164062 171.214844 130.164062 " fill-opacity="1" fill-rule="nonzero"/><g clip-path="url(#fa5f741142)"><path fill="currentColor" d="M 228.621094 91.714844 L 228.625 91.714844 Z M 140.644531 91.5 C 143.910156 92.46875 161.171875 93.433594 184.386719 93.433594 C 207.605469 93.433594 224.863281 92.46875 228.128906 91.5 C 224.863281 90.527344 207.605469 89.5625 184.386719 89.5625 C 161.171875 89.5625 143.910156 90.527344 140.644531 91.5 Z M 184.386719 94.414062 C 172.453125 94.414062 161.234375 94.160156 152.792969 93.703125 C 139.253906 92.964844 139.253906 92.117188 139.253906 91.5 C 139.253906 90.878906 139.253906 90.03125 152.792969 89.296875 C 161.234375 88.839844 172.453125 88.585938 184.386719 88.585938 C 196.320312 88.585938 207.539062 88.839844 215.980469 89.296875 C 229.519531 90.03125 229.519531 90.878906 229.519531 91.5 C 229.519531 92.117188 229.519531 92.964844 215.980469 93.703125 C 207.539062 94.160156 196.320312 94.414062 184.386719 94.414062 " fill-opacity="1" fill-rule="nonzero"/></g><g clip-path="url(#c081baba50)"><path fill="currentColor" d="M 184.542969 214.316406 C 171.074219 214.316406 164.3125 216.40625 164.3125 217.578125 C 164.3125 218.753906 171.074219 220.84375 184.542969 220.84375 C 197.082031 220.84375 205.082031 218.910156 205.082031 217.578125 C 205.082031 216.25 197.082031 214.316406 184.542969 214.316406 Z M 184.542969 221.824219 C 174.328125 221.824219 163.332031 220.496094 163.332031 217.578125 C 163.332031 214.664062 174.328125 213.335938 184.542969 213.335938 C 193.191406 213.335938 206.058594 214.464844 206.058594 217.578125 C 206.058594 220.695312 193.191406 221.824219 184.542969 221.824219 " fill-opacity="1" fill-rule="nonzero"/></g><path fill="currentColor" d="M 184.566406 217.683594 L 164.128906 217.683594 C 163.859375 217.683594 163.640625 217.464844 163.640625 217.195312 C 163.640625 216.925781 163.859375 216.707031 164.128906 216.707031 L 184.566406 216.707031 C 184.835938 216.707031 185.054688 216.925781 185.054688 217.195312 C 185.054688 217.464844 184.835938 217.683594 184.566406 217.683594 " fill-opacity="1" fill-rule="nonzero"/><g clip-path="url(#c270cfe80e)"><path fill="currentColor" d="M 181.914062 221.652344 C 181.820312 221.652344 181.722656 221.621094 181.636719 221.5625 C 181.414062 221.410156 181.359375 221.105469 181.511719 220.882812 L 186.433594 213.761719 C 186.585938 213.539062 186.890625 213.484375 187.113281 213.636719 C 187.335938 213.792969 187.390625 214.097656 187.238281 214.316406 L 182.316406 221.441406 C 182.222656 221.578125 182.070312 221.652344 181.914062 221.652344 " fill-opacity="1" fill-rule="nonzero"/></g><path fill="currentColor" d="M 168.277344 107.398438 C 167.871094 107.398438 167.460938 107.394531 167.050781 107.378906 C 153.757812 106.964844 149.484375 104.246094 149.3125 104.128906 C 149.085938 103.980469 149.023438 103.675781 149.171875 103.453125 C 149.320312 103.226562 149.625 103.164062 149.847656 103.3125 C 149.890625 103.339844 154.132812 106 167.082031 106.402344 C 174.515625 106.632812 180.921875 104.648438 187.121094 102.722656 C 191.976562 101.21875 196.566406 99.796875 201.394531 99.488281 C 211.921875 98.824219 217.675781 102.609375 219.1875 103.789062 C 219.402344 103.953125 219.441406 104.261719 219.273438 104.476562 C 219.109375 104.6875 218.800781 104.726562 218.589844 104.558594 C 217.558594 103.761719 211.90625 99.800781 201.453125 100.464844 C 196.746094 100.765625 192.210938 102.171875 187.414062 103.660156 C 181.476562 105.5 175.347656 107.398438 168.277344 107.398438 " fill-opacity="1" fill-rule="nonzero"/><path fill="currentColor" d="M 184.644531 217.671875 C 184.371094 217.671875 184.152344 217.453125 184.152344 217.179688 L 184.152344 126.667969 C 184.152344 126.394531 184.371094 126.179688 184.640625 126.179688 C 184.914062 126.179688 185.132812 126.394531 185.132812 126.667969 L 185.132812 217.179688 C 185.132812 217.453125 184.914062 217.671875 184.644531 217.671875 " fill-opacity="1" fill-rule="nonzero"/><path fill="currentColor" d="M 166.558594 124.394531 C 166.441406 124.394531 166.324219 124.355469 166.230469 124.269531 C 166.03125 124.085938 166.015625 123.777344 166.195312 123.578125 L 184.097656 103.890625 C 184.28125 103.6875 184.589844 103.675781 184.789062 103.855469 C 184.992188 104.039062 185.003906 104.347656 184.824219 104.546875 L 166.921875 124.234375 C 166.824219 124.34375 166.691406 124.394531 166.558594 124.394531 " fill-opacity="1" fill-rule="nonzero"/><path fill="currentColor" d="M 176.308594 113.675781 C 176.179688 113.675781 176.050781 113.628906 175.953125 113.527344 L 169.976562 107.320312 C 169.789062 107.125 169.792969 106.816406 169.988281 106.628906 C 170.183594 106.441406 170.492188 106.449219 170.679688 106.644531 L 176.660156 112.847656 C 176.847656 113.042969 176.839844 113.355469 176.648438 113.542969 C 176.550781 113.632812 176.429688 113.675781 176.308594 113.675781 " fill-opacity="1" fill-rule="nonzero"/><path fill="currentColor" d="M 166.339844 123.691406 C 166.066406 123.6875 165.851562 123.46875 165.851562 123.195312 L 165.941406 107.015625 C 165.945312 106.746094 166.164062 106.53125 166.433594 106.53125 C 166.703125 106.53125 166.921875 106.75 166.921875 107.019531 L 166.832031 123.203125 C 166.828125 123.472656 166.609375 123.691406 166.339844 123.691406 " fill-opacity="1" fill-rule="nonzero"/><path fill="currentColor" d="M 175.898438 113.542969 L 157.5 113.542969 C 157.226562 113.542969 157.007812 113.324219 157.007812 113.050781 C 157.007812 112.78125 157.226562 112.5625 157.5 112.5625 L 175.898438 112.5625 C 176.167969 112.5625 176.390625 112.78125 176.390625 113.050781 C 176.390625 113.324219 176.167969 113.542969 175.898438 113.542969 " fill-opacity="1" fill-rule="nonzero"/><path fill="currentColor" d="M 177.574219 137.632812 C 177.453125 137.632812 177.332031 137.585938 177.238281 137.496094 C 177.042969 137.3125 177.035156 137 177.222656 136.804688 L 184.289062 129.386719 C 184.382812 129.289062 184.515625 129.25 184.648438 129.234375 C 184.78125 129.234375 184.914062 129.292969 185.003906 129.394531 L 191.707031 136.75 C 191.890625 136.949219 191.875 137.257812 191.675781 137.441406 C 191.476562 137.625 191.167969 137.609375 190.984375 137.410156 L 184.632812 130.441406 L 177.929688 137.480469 C 177.832031 137.582031 177.703125 137.632812 177.574219 137.632812 " fill-opacity="1" fill-rule="nonzero"/><path fill="currentColor" d="M 212.003906 113 L 191.546875 113 C 191.277344 113 191.058594 112.78125 191.058594 112.507812 C 191.058594 112.238281 191.277344 112.019531 191.546875 112.019531 L 212.003906 112.019531 C 212.273438 112.019531 212.492188 112.238281 212.492188 112.507812 C 212.492188 112.78125 212.273438 113 212.003906 113 " fill-opacity="1" fill-rule="nonzero"/><path fill="currentColor" d="M 218.4375 104.84375 L 184.191406 104.84375 C 183.917969 104.84375 183.699219 104.625 183.699219 104.355469 C 183.699219 104.085938 183.917969 103.867188 184.191406 103.867188 L 218.4375 103.867188 C 218.707031 103.867188 218.925781 104.085938 218.925781 104.355469 C 218.925781 104.625 218.707031 104.84375 218.4375 104.84375 " fill-opacity="1" fill-rule="nonzero"/><path fill="currentColor" d="M 193.058594 135.757812 C 192.929688 135.757812 192.796875 135.703125 192.699219 135.601562 L 184.429688 126.742188 C 184.246094 126.542969 184.257812 126.234375 184.453125 126.050781 C 184.652344 125.867188 184.960938 125.875 185.144531 126.074219 L 193.417969 134.933594 C 193.601562 135.128906 193.589844 135.441406 193.390625 135.625 C 193.296875 135.714844 193.175781 135.757812 193.058594 135.757812 " fill-opacity="1" fill-rule="nonzero"/><path fill="currentColor" d="M 188.671875 130.800781 C 188.5625 130.800781 188.449219 130.765625 188.359375 130.6875 C 188.152344 130.511719 188.125 130.203125 188.300781 129.996094 L 203.09375 112.367188 C 203.265625 112.160156 203.578125 112.132812 203.78125 112.304688 C 203.988281 112.480469 204.015625 112.789062 203.84375 112.996094 L 189.046875 130.625 C 188.953125 130.742188 188.8125 130.800781 188.671875 130.800781 " fill-opacity="1" fill-rule="nonzero"/><g clip-path="url(#97614bb631)"><path fill="currentColor" d="M 223.136719 72.84375 C 221.058594 72.84375 219.371094 74.535156 219.371094 76.613281 C 219.371094 78.691406 221.058594 80.382812 223.136719 80.382812 C 225.21875 80.382812 226.90625 78.691406 226.90625 76.613281 C 226.90625 74.535156 225.21875 72.84375 223.136719 72.84375 Z M 223.136719 81.359375 C 220.519531 81.359375 218.390625 79.230469 218.390625 76.613281 C 218.390625 73.996094 220.519531 71.863281 223.136719 71.863281 C 225.757812 71.863281 227.886719 73.996094 227.886719 76.613281 C 227.886719 79.230469 225.757812 81.359375 223.136719 81.359375 " fill-opacity="1" fill-rule="nonzero"/></g><g clip-path="url(#fe3eec1980)"><path fill="currentColor" d="M 184.460938 146.308594 C 184.316406 146.308594 184.175781 146.246094 184.085938 146.132812 C 176.679688 137.164062 169.195312 128.082031 161.710938 119 C 154.273438 109.972656 146.835938 100.945312 139.476562 92.035156 C 139.300781 91.824219 139.332031 91.515625 139.539062 91.34375 C 139.75 91.171875 140.058594 91.203125 140.230469 91.410156 C 147.589844 100.324219 155.027344 109.351562 162.464844 118.378906 C 169.824219 127.304688 177.179688 136.234375 184.460938 145.050781 C 191.734375 136.242188 199.195312 127.148438 206.417969 118.347656 C 213.742188 109.417969 221.320312 100.183594 228.691406 91.257812 C 228.863281 91.046875 229.171875 91.019531 229.382812 91.191406 C 229.589844 91.363281 229.617188 91.671875 229.445312 91.878906 C 222.074219 100.804688 214.5 110.039062 207.175781 118.96875 C 199.828125 127.921875 192.230469 137.179688 184.839844 146.132812 C 184.746094 146.246094 184.605469 146.308594 184.460938 146.308594 " fill-opacity="1" fill-rule="nonzero"/></g><path fill="currentColor" d="M 184.460938 109.402344 C 184.191406 109.402344 183.972656 109.183594 183.972656 108.914062 L 183.972656 89.34375 C 183.972656 89.074219 184.191406 88.855469 184.460938 88.855469 C 184.730469 88.855469 184.949219 89.074219 184.949219 89.34375 L 184.949219 108.914062 C 184.949219 109.183594 184.730469 109.402344 184.460938 109.402344 " fill-opacity="1" fill-rule="nonzero"/><g clip-path="url(#415969bddd)"><g clip-path="url(#8eec3875f4)"><g clip-path="url(#18b3ff373d)"><g clip-path="url(#8948324371)"><path fill="currentColor" d="M 88.601562 287.488281 C 13.902344 212.792969 45.628906 87.449219 145.953125 55.941406 C 247.117188 25.867188 343 113.246094 322.953125 216.726562 C 321.535156 223.398438 319.644531 229.933594 317.285156 236.335938 C 314.921875 242.734375 312.113281 248.929688 308.859375 254.921875 C 305.601562 260.917969 301.933594 266.644531 297.847656 272.105469 C 293.765625 277.570312 289.308594 282.710938 284.484375 287.53125 C 289.21875 282.664062 293.578125 277.480469 297.566406 271.984375 C 301.550781 266.488281 305.125 260.730469 308.28125 254.71875 C 311.4375 248.707031 314.148438 242.5 316.410156 236.097656 C 318.671875 229.695312 320.464844 223.164062 321.785156 216.5 C 322.34375 213.601562 322.8125 210.6875 323.1875 207.757812 C 323.5625 204.828125 323.839844 201.890625 324.027344 198.945312 C 324.210938 195.996094 324.304688 193.046875 324.300781 190.09375 C 324.296875 187.140625 324.199219 184.191406 324.003906 181.246094 C 323.8125 178.300781 323.523438 175.363281 323.140625 172.433594 C 322.761719 169.503906 322.285156 166.59375 321.714844 163.695312 C 321.148438 160.796875 320.484375 157.921875 319.730469 155.066406 C 318.976562 152.210938 318.132812 149.378906 317.199219 146.578125 C 316.261719 143.777344 315.238281 141.011719 314.125 138.273438 C 313.011719 135.539062 311.8125 132.839844 310.527344 130.183594 C 309.242188 127.523438 307.871094 124.910156 306.417969 122.339844 C 304.960938 119.769531 303.425781 117.246094 301.8125 114.773438 C 300.195312 112.304688 298.503906 109.886719 296.730469 107.519531 C 294.960938 105.15625 293.113281 102.855469 291.195312 100.609375 C 289.277344 98.363281 287.289062 96.183594 285.226562 94.066406 C 283.167969 91.949219 281.042969 89.898438 278.851562 87.917969 C 276.664062 85.9375 274.410156 84.027344 272.097656 82.191406 C 269.785156 80.355469 267.414062 78.59375 264.988281 76.910156 C 262.5625 75.226562 260.085938 73.621094 257.554688 72.097656 C 255.027344 70.570312 252.449219 69.128906 249.828125 67.769531 C 247.207031 66.410156 244.546875 65.136719 241.839844 63.945312 C 239.136719 62.757812 236.398438 61.65625 233.625 60.644531 C 230.851562 59.628906 228.046875 58.707031 225.214844 57.875 C 222.378906 57.042969 219.523438 56.300781 216.644531 55.652344 C 213.761719 55 210.863281 54.445312 207.945312 53.980469 C 205.03125 53.519531 202.101562 53.148438 199.160156 52.875 C 196.222656 52.597656 193.277344 52.417969 190.324219 52.332031 C 187.371094 52.246094 184.421875 52.253906 181.46875 52.359375 C 178.519531 52.460938 175.574219 52.660156 172.636719 52.953125 C 169.699219 53.242188 166.773438 53.628906 163.859375 54.109375 C 160.945312 54.589844 158.050781 55.164062 155.171875 55.832031 C 152.296875 56.496094 149.445312 57.253906 146.617188 58.105469 C 46.957031 89.050781 16.101562 212.722656 88.601562 287.488281 Z M 88.601562 287.488281 " fill-opacity="1" fill-rule="nonzero"/></g></g></g></g><g fill="currentColor" fill-opacity="1"><g transform="translate(109.210331, 294.044996)"><g><path d="M 28.203125 3.390625 C 26.242188 3.878906 24.472656 3.570312 22.890625 2.46875 C 22.035156 1.863281 21.546875 0.976562 21.421875 -0.1875 C 21.359375 -1.101562 21.570312 -2.078125 22.0625 -3.109375 C 22.800781 -4.578125 23.71875 -5.953125 24.8125 -7.234375 C 25.851562 -8.578125 27.015625 -9.8125 28.296875 -10.9375 C 29.578125 -12.070312 30.890625 -13.125 32.234375 -14.09375 C 34.304688 -15.5625 36.410156 -16.984375 38.546875 -18.359375 C 40.679688 -19.734375 42.878906 -21 45.140625 -22.15625 C 45.867188 -22.457031 46.234375 -22.976562 46.234375 -23.71875 C 46.234375 -24.207031 46.25 -24.664062 46.28125 -25.09375 C 46.3125 -25.519531 46.296875 -25.945312 46.234375 -26.375 C 46.171875 -27.53125 45.742188 -28.597656 44.953125 -29.578125 C 44.285156 -30.304688 43.492188 -30.820312 42.578125 -31.125 C 41.660156 -31.375 40.742188 -31.53125 39.828125 -31.59375 C 38.910156 -31.65625 37.960938 -31.625 36.984375 -31.5 C 35.273438 -31.375 33.613281 -31.097656 32 -30.671875 C 30.382812 -30.242188 28.78125 -29.785156 27.1875 -29.296875 C 25.050781 -28.742188 22.898438 -28.175781 20.734375 -27.59375 C 18.566406 -27.019531 16.414062 -26.429688 14.28125 -25.828125 C 12.394531 -25.273438 10.472656 -24.90625 8.515625 -24.71875 C 8.085938 -24.65625 7.644531 -24.640625 7.1875 -24.671875 C 6.726562 -24.703125 6.253906 -24.71875 5.765625 -24.71875 C 4.910156 -24.78125 4.128906 -24.992188 3.421875 -25.359375 C 2.722656 -25.722656 2.039062 -26.179688 1.375 -26.734375 C 1.070312 -26.984375 0.84375 -27.273438 0.6875 -27.609375 C 0.53125 -27.941406 0.394531 -28.320312 0.28125 -28.75 C 0.03125 -29.476562 -0.0625 -30.207031 0 -30.9375 C 0.0625 -31.675781 0.179688 -32.410156 0.359375 -33.140625 C 0.609375 -34.117188 0.929688 -35.066406 1.328125 -35.984375 C 1.722656 -36.898438 2.132812 -37.785156 2.5625 -38.640625 C 3.90625 -41.328125 5.382812 -43.90625 7 -46.375 C 8.625 -48.84375 10.410156 -51.207031 12.359375 -53.46875 C 15.898438 -57.625 20.113281 -61.046875 25 -63.734375 C 26.40625 -64.523438 27.835938 -65.191406 29.296875 -65.734375 C 30.765625 -66.285156 32.257812 -66.742188 33.78125 -67.109375 C 34.519531 -67.234375 35.253906 -67.359375 35.984375 -67.484375 C 36.710938 -67.609375 37.414062 -67.695312 38.09375 -67.75 C 39.5 -67.875 40.78125 -67.785156 41.9375 -67.484375 C 44.925781 -66.691406 46.941406 -64.984375 47.984375 -62.359375 C 48.773438 -60.398438 48.988281 -58.351562 48.625 -56.21875 C 48.375 -54.875 48.082031 -53.546875 47.75 -52.234375 C 47.414062 -50.921875 46.972656 -49.65625 46.421875 -48.4375 C 45.628906 -46.539062 44.53125 -44.800781 43.125 -43.21875 C 42.695312 -42.664062 42.238281 -42.269531 41.75 -42.03125 C 41.75 -42.03125 41.660156 -42.03125 41.484375 -42.03125 C 41.359375 -42.09375 41.328125 -42.210938 41.390625 -42.390625 C 41.390625 -42.390625 41.445312 -42.453125 41.5625 -42.578125 C 42.96875 -44.097656 44.113281 -45.773438 45 -47.609375 C 45.882812 -49.441406 46.539062 -51.363281 46.96875 -53.375 C 47.09375 -54.050781 47.210938 -54.722656 47.328125 -55.390625 C 47.453125 -56.066406 47.546875 -56.738281 47.609375 -57.40625 C 47.796875 -59.539062 47.367188 -61.648438 46.328125 -63.734375 C 46.265625 -63.847656 46.171875 -63.992188 46.046875 -64.171875 C 45.929688 -64.359375 45.8125 -64.515625 45.6875 -64.640625 C 45.257812 -65.429688 44.53125 -65.921875 43.5 -66.109375 C 42.820312 -66.296875 42.128906 -66.398438 41.421875 -66.421875 C 40.722656 -66.453125 40.039062 -66.410156 39.375 -66.296875 C 33.820312 -65.492188 28.660156 -63.414062 23.890625 -60.0625 C 21.515625 -58.414062 19.332031 -56.566406 17.34375 -54.515625 C 15.363281 -52.472656 13.488281 -50.296875 11.71875 -47.984375 C 8.601562 -43.890625 5.945312 -39.492188 3.75 -34.796875 C 3.445312 -34.003906 3.15625 -33.222656 2.875 -32.453125 C 2.601562 -31.691406 2.410156 -30.882812 2.296875 -30.03125 C 2.234375 -29.539062 2.226562 -29.050781 2.28125 -28.5625 C 2.34375 -28.070312 2.4375 -27.585938 2.5625 -27.109375 C 2.75 -26.492188 3.144531 -26.15625 3.75 -26.09375 C 5.21875 -25.851562 6.742188 -25.820312 8.328125 -26 C 9.859375 -26.125 11.351562 -26.351562 12.8125 -26.6875 C 14.28125 -27.019531 15.71875 -27.398438 17.125 -27.828125 C 19.445312 -28.441406 21.75 -29.050781 24.03125 -29.65625 C 26.320312 -30.269531 28.597656 -30.882812 30.859375 -31.5 C 31.773438 -31.738281 32.675781 -31.945312 33.5625 -32.125 C 34.445312 -32.3125 35.347656 -32.4375 36.265625 -32.5 C 36.992188 -32.5625 37.722656 -32.578125 38.453125 -32.546875 C 39.191406 -32.515625 39.925781 -32.441406 40.65625 -32.328125 C 42.488281 -31.953125 44.195312 -31.035156 45.78125 -29.578125 C 47.0625 -28.359375 47.765625 -26.863281 47.890625 -25.09375 L 47.890625 -24.359375 C 47.953125 -24.046875 48.023438 -23.859375 48.109375 -23.796875 C 48.203125 -23.742188 48.40625 -23.773438 48.71875 -23.890625 L 49.265625 -24.171875 C 51.460938 -25.085938 53.671875 -26.003906 55.890625 -26.921875 C 58.117188 -27.835938 60.363281 -28.660156 62.625 -29.390625 C 63.601562 -29.753906 64.59375 -30.070312 65.59375 -30.34375 C 66.601562 -30.625 67.597656 -30.882812 68.578125 -31.125 C 69.128906 -31.25 69.476562 -31.296875 69.625 -31.265625 C 69.78125 -31.234375 70.070312 -30.972656 70.5 -30.484375 C 70.375 -30.242188 70.203125 -30.125 69.984375 -30.125 C 69.773438 -30.125 69.582031 -30.09375 69.40625 -30.03125 C 68.0625 -29.664062 66.75 -29.300781 65.46875 -28.9375 C 64.1875 -28.570312 62.90625 -28.144531 61.625 -27.65625 C 59.550781 -26.863281 57.457031 -26.066406 55.34375 -25.265625 C 53.238281 -24.472656 51.179688 -23.585938 49.171875 -22.609375 L 48.625 -22.34375 C 48.070312 -22.21875 47.703125 -21.789062 47.515625 -21.0625 C 47.210938 -19.71875 46.769531 -18.390625 46.1875 -17.078125 C 45.613281 -15.765625 44.988281 -14.5 44.3125 -13.28125 C 43.28125 -11.445312 42.179688 -9.675781 41.015625 -7.96875 C 39.859375 -6.257812 38.578125 -4.609375 37.171875 -3.015625 C 36.503906 -2.222656 35.800781 -1.472656 35.0625 -0.765625 C 34.332031 -0.0664062 33.539062 0.582031 32.6875 1.1875 C 32.019531 1.675781 31.316406 2.117188 30.578125 2.515625 C 29.847656 2.910156 29.054688 3.203125 28.203125 3.390625 Z M 24.8125 2.5625 C 25.539062 2.5625 26.253906 2.453125 26.953125 2.234375 C 27.660156 2.023438 28.320312 1.769531 28.9375 1.46875 C 30.519531 0.613281 31.890625 -0.394531 33.046875 -1.5625 C 34.085938 -2.476562 35.019531 -3.4375 35.84375 -4.4375 C 36.664062 -5.445312 37.472656 -6.5 38.265625 -7.59375 C 39.492188 -9.300781 40.65625 -11.039062 41.75 -12.8125 C 42.851562 -14.582031 43.800781 -16.414062 44.59375 -18.3125 C 44.71875 -18.613281 44.867188 -18.945312 45.046875 -19.3125 C 45.234375 -19.6875 45.359375 -20.085938 45.421875 -20.515625 C 45.171875 -20.515625 44.9375 -20.46875 44.71875 -20.375 C 44.507812 -20.28125 44.316406 -20.171875 44.140625 -20.046875 C 41.390625 -18.523438 38.789062 -16.910156 36.34375 -15.203125 C 35.375 -14.523438 34.398438 -13.835938 33.421875 -13.140625 C 32.441406 -12.441406 31.523438 -11.691406 30.671875 -10.890625 C 29.515625 -9.921875 28.429688 -8.882812 27.421875 -7.78125 C 26.410156 -6.6875 25.476562 -5.523438 24.625 -4.296875 C 24.320312 -3.816406 24.015625 -3.316406 23.703125 -2.796875 C 23.398438 -2.273438 23.191406 -1.738281 23.078125 -1.1875 C 22.765625 -0.207031 22.796875 0.707031 23.171875 1.5625 C 23.472656 2.289062 24.019531 2.625 24.8125 2.5625 Z M 24.8125 2.5625 "/></g></g></g><g fill="currentColor" fill-opacity="1"><g transform="translate(177.058065, 294.044996)"><g><path d="M 4.484375 -23.171875 C 3.390625 -22.316406 2.382812 -22.46875 1.46875 -23.625 C 1.28125 -23.863281 1.15625 -24.117188 1.09375 -24.390625 C 1.03125 -24.671875 0.972656 -24.9375 0.921875 -25.1875 C 0.921875 -26.46875 1.132812 -27.625 1.5625 -28.65625 C 1.675781 -28.957031 1.78125 -29.289062 1.875 -29.65625 C 1.96875 -30.03125 1.953125 -30.398438 1.828125 -30.765625 C 1.648438 -31.316406 1.710938 -31.894531 2.015625 -32.5 C 2.679688 -34.632812 3.960938 -36.253906 5.859375 -37.359375 L 6.40625 -37.625 C 7.320312 -37.9375 8.054688 -38 8.609375 -37.8125 C 9.160156 -37.632812 9.800781 -37.175781 10.53125 -36.4375 C 10.769531 -36.195312 10.890625 -35.832031 10.890625 -35.34375 C 11.015625 -34.488281 10.984375 -33.785156 10.796875 -33.234375 C 10.429688 -31.585938 9.851562 -30.125 9.0625 -28.84375 C 9 -28.71875 8.9375 -28.578125 8.875 -28.421875 C 8.820312 -28.273438 8.765625 -28.140625 8.703125 -28.015625 C 8.515625 -27.835938 8.484375 -27.71875 8.609375 -27.65625 C 8.671875 -27.59375 8.820312 -27.5625 9.0625 -27.5625 C 10.28125 -27.800781 11.53125 -28.226562 12.8125 -28.84375 L 15.75 -30.40625 C 15.9375 -30.519531 16.164062 -30.515625 16.4375 -30.390625 C 16.707031 -30.273438 16.875 -30.09375 16.9375 -29.84375 C 16.9375 -29.664062 16.847656 -29.484375 16.671875 -29.296875 L 14.734375 -28.109375 C 12.847656 -27.066406 10.710938 -26.488281 8.328125 -26.375 C 7.835938 -26.550781 7.378906 -26.304688 6.953125 -25.640625 C 6.585938 -25.210938 6.207031 -24.785156 5.8125 -24.359375 C 5.414062 -23.929688 4.972656 -23.535156 4.484375 -23.171875 Z M 6.3125 -27.5625 C 6.6875 -27.375 7.023438 -27.492188 7.328125 -27.921875 C 7.992188 -29.085938 8.539062 -30.21875 8.96875 -31.3125 C 9.15625 -31.925781 9.335938 -32.550781 9.515625 -33.1875 C 9.703125 -33.832031 9.796875 -34.519531 9.796875 -35.25 C 9.796875 -35.4375 9.734375 -35.773438 9.609375 -36.265625 C 9.609375 -36.628906 9.425781 -36.8125 9.0625 -36.8125 C 8.457031 -36.8125 7.816406 -36.597656 7.140625 -36.171875 C 5.429688 -35.128906 4.210938 -33.601562 3.484375 -31.59375 C 3.359375 -31.28125 3.414062 -31.035156 3.65625 -30.859375 C 3.96875 -30.609375 4 -30.300781 3.75 -29.9375 C 3.75 -29.9375 3.734375 -29.921875 3.703125 -29.890625 C 3.671875 -29.859375 3.65625 -29.816406 3.65625 -29.765625 C 3.351562 -29.085938 3.539062 -28.597656 4.21875 -28.296875 C 4.882812 -27.867188 5.582031 -27.625 6.3125 -27.5625 Z M 3.109375 -23.625 C 3.597656 -23.925781 4.160156 -24.367188 4.796875 -24.953125 C 5.441406 -25.535156 5.914062 -26.097656 6.21875 -26.640625 L 5.765625 -26.921875 C 5.335938 -27.046875 4.941406 -27.226562 4.578125 -27.46875 C 4.210938 -27.707031 3.847656 -27.953125 3.484375 -28.203125 C 3.296875 -28.378906 3.140625 -28.347656 3.015625 -28.109375 C 2.472656 -26.765625 2.289062 -25.390625 2.46875 -23.984375 C 2.46875 -23.617188 2.679688 -23.5 3.109375 -23.625 Z M 3.109375 -23.625 "/></g></g></g><g fill="currentColor" fill-opacity="1"><g transform="translate(191.250238, 294.044996)"><g><path d="M 2.84375 -21.703125 C 2.289062 -21.398438 1.738281 -21.304688 1.1875 -21.421875 C 0.632812 -21.546875 0.117188 -21.757812 -0.359375 -22.0625 C -0.609375 -22.25 -0.796875 -22.523438 -0.921875 -22.890625 C -0.972656 -23.078125 -1.015625 -23.257812 -1.046875 -23.4375 C -1.078125 -23.625 -1.09375 -23.804688 -1.09375 -23.984375 C -1.09375 -24.234375 -1.078125 -24.445312 -1.046875 -24.625 C -1.015625 -24.8125 -0.972656 -25.023438 -0.921875 -25.265625 C -0.367188 -27.953125 0.914062 -30.210938 2.9375 -32.046875 C 3.300781 -32.347656 3.664062 -32.617188 4.03125 -32.859375 C 4.394531 -33.109375 4.789062 -33.265625 5.21875 -33.328125 C 6.132812 -33.628906 6.925781 -33.535156 7.59375 -33.046875 C 7.84375 -32.929688 7.96875 -32.75 7.96875 -32.5 C 7.96875 -32.4375 7.953125 -32.375 7.921875 -32.3125 C 7.890625 -32.257812 7.875 -32.203125 7.875 -32.140625 C 7.6875 -32.078125 7.535156 -32.109375 7.421875 -32.234375 C 7.359375 -32.347656 7.328125 -32.46875 7.328125 -32.59375 C 7.140625 -32.84375 6.925781 -32.9375 6.6875 -32.875 C 6.007812 -32.75 5.398438 -32.472656 4.859375 -32.046875 C 4.003906 -31.378906 3.269531 -30.617188 2.65625 -29.765625 C 1.5 -28.046875 0.734375 -26.148438 0.359375 -24.078125 L 0.359375 -23.71875 C 0.359375 -22.863281 0.476562 -22.390625 0.71875 -22.296875 C 0.96875 -22.203125 1.398438 -22.28125 2.015625 -22.53125 C 2.679688 -22.832031 3.289062 -23.148438 3.84375 -23.484375 C 4.394531 -23.816406 4.914062 -24.195312 5.40625 -24.625 C 6.4375 -25.425781 7.578125 -26.3125 8.828125 -27.28125 C 10.085938 -28.257812 11.203125 -29.085938 12.171875 -29.765625 L 13.28125 -30.484375 C 13.394531 -30.609375 13.515625 -30.640625 13.640625 -30.578125 C 13.765625 -30.515625 13.890625 -30.457031 14.015625 -30.40625 C 14.191406 -30.21875 14.191406 -30.0625 14.015625 -29.9375 L 13.828125 -29.671875 C 12.609375 -28.753906 11.28125 -27.742188 9.84375 -26.640625 C 8.40625 -25.546875 7.109375 -24.539062 5.953125 -23.625 L 4.125 -22.34375 C 3.695312 -22.09375 3.269531 -21.878906 2.84375 -21.703125 Z M 2.84375 -21.703125 "/></g></g></g><g fill="currentColor" fill-opacity="1"><g transform="translate(202.603977, 294.044996)"><g><path d="M 5.765625 -38 C 5.273438 -38.175781 5.03125 -38.484375 5.03125 -38.921875 C 5.21875 -39.523438 5.460938 -40.007812 5.765625 -40.375 C 5.890625 -40.625 6.101562 -40.6875 6.40625 -40.5625 C 6.46875 -40.5625 6.5625 -40.5 6.6875 -40.375 C 6.625 -40.3125 6.59375 -40.222656 6.59375 -40.109375 C 6.289062 -39.796875 6.226562 -39.488281 6.40625 -39.1875 C 6.53125 -39.007812 6.53125 -38.828125 6.40625 -38.640625 C 6.34375 -38.210938 6.128906 -38 5.765625 -38 Z M 4.9375 -22.34375 C 4.082031 -22.039062 3.140625 -22.128906 2.109375 -22.609375 C 1.554688 -22.921875 1.21875 -23.410156 1.09375 -24.078125 L 0.921875 -25.359375 C 1.097656 -27.859375 1.738281 -30.207031 2.84375 -32.40625 C 3.082031 -32.78125 3.296875 -33.054688 3.484375 -33.234375 C 3.597656 -33.359375 3.757812 -33.390625 3.96875 -33.328125 C 4.1875 -33.265625 4.328125 -33.171875 4.390625 -33.046875 C 4.390625 -32.992188 4.40625 -32.9375 4.4375 -32.875 C 4.46875 -32.8125 4.453125 -32.75 4.390625 -32.6875 C 3.660156 -31.53125 3.171875 -30.320312 2.921875 -29.0625 C 2.679688 -27.8125 2.5 -26.546875 2.375 -25.265625 C 2.257812 -24.535156 2.289062 -23.894531 2.46875 -23.34375 C 2.65625 -23.039062 2.898438 -22.890625 3.203125 -22.890625 C 3.503906 -22.890625 3.789062 -22.945312 4.0625 -23.0625 C 4.34375 -23.1875 4.609375 -23.28125 4.859375 -23.34375 C 5.398438 -23.65625 5.945312 -23.976562 6.5 -24.3125 C 7.050781 -24.644531 7.601562 -24.992188 8.15625 -25.359375 C 9.1875 -26.148438 10.21875 -26.957031 11.25 -27.78125 C 12.289062 -28.613281 13.332031 -29.425781 14.375 -30.21875 C 14.5625 -30.394531 14.710938 -30.515625 14.828125 -30.578125 C 15.191406 -30.941406 15.617188 -30.910156 16.109375 -30.484375 C 16.171875 -30.484375 16.21875 -30.453125 16.25 -30.390625 C 16.28125 -30.335938 16.265625 -30.28125 16.203125 -30.21875 L 15.84375 -29.84375 C 14.5 -28.6875 13.125 -27.570312 11.71875 -26.5 C 10.3125 -25.4375 8.847656 -24.445312 7.328125 -23.53125 C 6.960938 -23.289062 6.578125 -23.0625 6.171875 -22.84375 C 5.773438 -22.632812 5.363281 -22.46875 4.9375 -22.34375 Z M 4.9375 -22.34375 "/></g></g></g><g fill="currentColor" fill-opacity="1"><g transform="translate(216.063654, 294.044996)"><g><path d="M 3.203125 -21.703125 C 2.710938 -21.828125 2.269531 -22.007812 1.875 -22.25 C 1.476562 -22.488281 1.066406 -22.796875 0.640625 -23.171875 C 0.273438 -23.535156 0.09375 -24.019531 0.09375 -24.625 C -0.09375 -25.539062 -0.03125 -26.519531 0.28125 -27.5625 C 0.457031 -28.226562 0.679688 -28.894531 0.953125 -29.5625 C 1.234375 -30.238281 1.523438 -30.882812 1.828125 -31.5 C 2.316406 -32.414062 2.835938 -33.316406 3.390625 -34.203125 C 3.941406 -35.085938 4.550781 -35.925781 5.21875 -36.71875 C 5.519531 -37.019531 5.804688 -37.304688 6.078125 -37.578125 C 6.359375 -37.859375 6.648438 -38.085938 6.953125 -38.265625 C 7.265625 -38.578125 7.539062 -38.765625 7.78125 -38.828125 C 8.207031 -39.003906 8.679688 -38.96875 9.203125 -38.71875 C 9.722656 -38.476562 10.039062 -38.144531 10.15625 -37.71875 C 10.21875 -37.476562 10.21875 -37.234375 10.15625 -36.984375 C 10.101562 -36.554688 9.96875 -36.160156 9.75 -35.796875 C 9.539062 -35.429688 9.3125 -35.066406 9.0625 -34.703125 C 8.507812 -33.910156 7.894531 -33.144531 7.21875 -32.40625 C 6.550781 -31.675781 5.851562 -30.976562 5.125 -30.3125 C 4.757812 -30 4.378906 -29.707031 3.984375 -29.4375 C 3.585938 -29.164062 3.207031 -28.875 2.84375 -28.5625 C 2.65625 -28.445312 2.515625 -28.296875 2.421875 -28.109375 C 2.335938 -27.921875 2.234375 -27.738281 2.109375 -27.5625 C 1.742188 -26.457031 1.617188 -25.207031 1.734375 -23.8125 C 1.796875 -22.957031 2.253906 -22.617188 3.109375 -22.796875 C 3.472656 -22.859375 3.835938 -22.921875 4.203125 -22.984375 C 4.578125 -23.046875 4.945312 -23.132812 5.3125 -23.25 C 5.800781 -23.4375 6.257812 -23.648438 6.6875 -23.890625 C 7.113281 -24.140625 7.539062 -24.382812 7.96875 -24.625 C 8.519531 -25 9.265625 -25.519531 10.203125 -26.1875 C 11.148438 -26.851562 12.097656 -27.550781 13.046875 -28.28125 C 13.992188 -29.019531 14.710938 -29.570312 15.203125 -29.9375 L 15.9375 -30.484375 C 16.363281 -30.796875 16.648438 -30.953125 16.796875 -30.953125 C 16.953125 -30.953125 17.304688 -30.738281 17.859375 -30.3125 C 17.734375 -30.1875 17.609375 -30.09375 17.484375 -30.03125 C 17.367188 -29.96875 17.25 -29.878906 17.125 -29.765625 C 16.445312 -29.210938 15.546875 -28.492188 14.421875 -27.609375 C 13.296875 -26.722656 12.164062 -25.867188 11.03125 -25.046875 C 9.90625 -24.222656 8.945312 -23.597656 8.15625 -23.171875 C 7.539062 -22.796875 6.925781 -22.488281 6.3125 -22.25 C 5.707031 -22.007812 5.035156 -21.828125 4.296875 -21.703125 C 3.929688 -21.640625 3.566406 -21.640625 3.203125 -21.703125 Z M 3.296875 -30.21875 C 3.421875 -30.15625 3.570312 -30.21875 3.75 -30.40625 C 4.238281 -30.882812 4.742188 -31.351562 5.265625 -31.8125 C 5.785156 -32.269531 6.257812 -32.773438 6.6875 -33.328125 C 7.050781 -33.816406 7.414062 -34.289062 7.78125 -34.75 C 8.144531 -35.207031 8.453125 -35.710938 8.703125 -36.265625 C 9.003906 -36.742188 9.15625 -37.195312 9.15625 -37.625 C 9.15625 -37.9375 9.035156 -38.03125 8.796875 -37.90625 C 8.484375 -37.78125 8.203125 -37.609375 7.953125 -37.390625 C 7.710938 -37.179688 7.472656 -36.957031 7.234375 -36.71875 C 6.441406 -35.800781 5.707031 -34.820312 5.03125 -33.78125 C 4.363281 -32.75 3.785156 -31.679688 3.296875 -30.578125 C 3.234375 -30.398438 3.234375 -30.28125 3.296875 -30.21875 Z M 3.296875 -30.21875 "/></g></g></g><g fill="currentColor" fill-opacity="1"><g transform="translate(231.171447, 294.044996)"><g><path d="M -2.375 5.859375 C -2.625 5.734375 -2.78125 5.671875 -2.84375 5.671875 C -3.144531 5.671875 -3.367188 5.578125 -3.515625 5.390625 C -3.671875 5.210938 -3.8125 5.003906 -3.9375 4.765625 C -4 4.398438 -4.0625 4.03125 -4.125 3.65625 C -4.1875 3.289062 -4.242188 2.925781 -4.296875 2.5625 C -4.359375 1.34375 -4.34375 0.171875 -4.25 -0.953125 C -4.164062 -2.085938 -4.03125 -3.234375 -3.84375 -4.390625 C -3.539062 -6.523438 -3.160156 -8.660156 -2.703125 -10.796875 C -2.242188 -12.941406 -1.769531 -15.050781 -1.28125 -17.125 L 2.5625 -32.78125 C 3.050781 -34.789062 3.613281 -36.785156 4.25 -38.765625 C 4.894531 -40.753906 5.550781 -42.726562 6.21875 -44.6875 C 6.53125 -45.539062 6.65625 -46.023438 6.59375 -46.140625 C 6.53125 -46.265625 6.007812 -46.265625 5.03125 -46.140625 C 3.320312 -45.898438 1.597656 -45.6875 -0.140625 -45.5 C -1.878906 -45.320312 -3.632812 -45.171875 -5.40625 -45.046875 C -6.195312 -44.984375 -6.988281 -44.96875 -7.78125 -45 C -8.570312 -45.03125 -9.363281 -45.140625 -10.15625 -45.328125 C -11.257812 -45.503906 -12.300781 -45.898438 -13.28125 -46.515625 C -13.519531 -46.691406 -13.757812 -46.898438 -14 -47.140625 C -14.25 -47.390625 -14.4375 -47.640625 -14.5625 -47.890625 C -14.738281 -48.378906 -14.582031 -48.773438 -14.09375 -49.078125 C -13.914062 -49.078125 -13.765625 -49.046875 -13.640625 -48.984375 C -13.578125 -48.921875 -13.5625 -48.859375 -13.59375 -48.796875 C -13.625 -48.742188 -13.640625 -48.6875 -13.640625 -48.625 C -13.828125 -48.4375 -13.953125 -48.253906 -14.015625 -48.078125 C -14.128906 -47.890625 -14.066406 -47.671875 -13.828125 -47.421875 C -13.703125 -47.367188 -13.578125 -47.3125 -13.453125 -47.25 C -13.335938 -47.1875 -13.25 -47.125 -13.1875 -47.0625 C -12.820312 -46.875 -12.453125 -46.734375 -12.078125 -46.640625 C -11.710938 -46.554688 -11.347656 -46.453125 -10.984375 -46.328125 C -10.378906 -46.265625 -9.769531 -46.203125 -9.15625 -46.140625 C -8.539062 -46.085938 -7.929688 -46.085938 -7.328125 -46.140625 C -5.304688 -46.265625 -3.289062 -46.476562 -1.28125 -46.78125 C 0.726562 -47.09375 2.710938 -47.398438 4.671875 -47.703125 L 6.78125 -47.984375 C 7.082031 -48.046875 7.296875 -48.226562 7.421875 -48.53125 L 7.6875 -49.53125 C 8.175781 -50.875 8.632812 -52.234375 9.0625 -53.609375 C 9.488281 -54.984375 9.914062 -56.34375 10.34375 -57.6875 C 10.40625 -57.863281 10.46875 -58.03125 10.53125 -58.1875 C 10.59375 -58.34375 10.65625 -58.476562 10.71875 -58.59375 C 10.832031 -58.71875 10.953125 -58.78125 11.078125 -58.78125 C 11.265625 -58.78125 11.390625 -58.691406 11.453125 -58.515625 C 11.503906 -58.328125 11.515625 -58.140625 11.484375 -57.953125 C 11.460938 -57.773438 11.421875 -57.59375 11.359375 -57.40625 L 10.53125 -54.296875 C 10.34375 -53.503906 10.140625 -52.738281 9.921875 -52 C 9.710938 -51.269531 9.519531 -50.507812 9.34375 -49.71875 C 9.28125 -49.53125 9.21875 -49.34375 9.15625 -49.15625 C 9.09375 -48.976562 9.09375 -48.800781 9.15625 -48.625 C 9.28125 -48.5625 9.414062 -48.53125 9.5625 -48.53125 C 9.71875 -48.53125 9.859375 -48.53125 9.984375 -48.53125 L 16.671875 -49.625 C 17.890625 -49.75 19.09375 -49.882812 20.28125 -50.03125 C 21.46875 -50.1875 22.644531 -50.328125 23.8125 -50.453125 C 26.0625 -50.753906 28.300781 -51.023438 30.53125 -51.265625 C 32.757812 -51.515625 34.972656 -51.820312 37.171875 -52.1875 C 37.847656 -52.3125 38.550781 -52.40625 39.28125 -52.46875 C 40.007812 -52.53125 40.710938 -52.59375 41.390625 -52.65625 C 41.992188 -52.707031 42.570312 -52.6875 43.125 -52.59375 C 43.675781 -52.507812 44.253906 -52.40625 44.859375 -52.28125 C 45.472656 -52.09375 45.8125 -51.726562 45.875 -51.1875 L 46.140625 -50 C 46.140625 -49.382812 46.019531 -48.925781 45.78125 -48.625 C 45.65625 -48.5 45.503906 -48.4375 45.328125 -48.4375 C 45.140625 -48.4375 45.046875 -48.554688 45.046875 -48.796875 C 44.984375 -48.984375 44.953125 -49.164062 44.953125 -49.34375 C 44.953125 -49.53125 45.015625 -49.75 45.140625 -50 C 45.378906 -50.300781 45.257812 -50.515625 44.78125 -50.640625 C 44.164062 -50.753906 43.550781 -50.859375 42.9375 -50.953125 C 42.332031 -51.046875 41.722656 -51.0625 41.109375 -51 L 31.859375 -49.625 C 31.066406 -49.5625 30.289062 -49.484375 29.53125 -49.390625 C 28.769531 -49.304688 28.019531 -49.203125 27.28125 -49.078125 C 25.570312 -48.890625 23.894531 -48.6875 22.25 -48.46875 C 20.601562 -48.257812 18.957031 -48.066406 17.3125 -47.890625 L 9.515625 -46.78125 C 9.460938 -46.78125 9.40625 -46.78125 9.34375 -46.78125 C 9.28125 -46.78125 9.1875 -46.78125 9.0625 -46.78125 C 8.695312 -46.726562 8.421875 -46.488281 8.234375 -46.0625 L 7.421875 -43.21875 C 6.617188 -40.46875 5.867188 -37.703125 5.171875 -34.921875 C 4.472656 -32.148438 3.785156 -29.359375 3.109375 -26.546875 C 2.503906 -23.984375 1.878906 -21.4375 1.234375 -18.90625 C 0.597656 -16.375 -0.0234375 -13.828125 -0.640625 -11.265625 C -1.066406 -9.554688 -1.429688 -7.859375 -1.734375 -6.171875 C -2.046875 -4.492188 -2.289062 -2.769531 -2.46875 -1 C -2.53125 -0.207031 -2.578125 0.582031 -2.609375 1.375 C -2.640625 2.164062 -2.625 2.957031 -2.5625 3.75 L -2.46875 4.390625 C -2.351562 4.515625 -2.234375 4.546875 -2.109375 4.484375 C -1.921875 4.304688 -1.796875 4.15625 -1.734375 4.03125 C -1.304688 3.539062 -0.925781 3.035156 -0.59375 2.515625 C -0.257812 1.992188 0.03125 1.460938 0.28125 0.921875 C 1.3125 -1.035156 2.300781 -3.019531 3.25 -5.03125 C 4.195312 -7.050781 5.097656 -9.066406 5.953125 -11.078125 C 7.171875 -13.828125 8.359375 -16.570312 9.515625 -19.3125 C 10.679688 -22.0625 11.9375 -24.78125 13.28125 -27.46875 C 13.707031 -28.445312 14.191406 -29.425781 14.734375 -30.40625 C 14.859375 -30.769531 15.164062 -30.859375 15.65625 -30.671875 C 15.90625 -30.671875 15.96875 -30.550781 15.84375 -30.3125 C 15.84375 -30.3125 15.78125 -30.1875 15.65625 -29.9375 C 13.757812 -25.789062 11.878906 -21.59375 10.015625 -17.34375 C 8.160156 -13.101562 6.285156 -8.878906 4.390625 -4.671875 C 3.847656 -3.515625 3.316406 -2.367188 2.796875 -1.234375 C 2.273438 -0.109375 1.675781 1.003906 1 2.109375 C 0.757812 2.597656 0.484375 3.070312 0.171875 3.53125 C -0.128906 3.988281 -0.460938 4.429688 -0.828125 4.859375 C -0.941406 5.035156 -1.125 5.25 -1.375 5.5 C -1.675781 5.800781 -2.007812 5.921875 -2.375 5.859375 Z M -2.375 5.859375 "/></g></g></g><g fill="currentColor" fill-opacity="1"><g transform="translate(244.448, 294.044996)"><g><path d="M -6.875 11.265625 C -7.300781 11.503906 -7.726562 11.609375 -8.15625 11.578125 C -8.582031 11.546875 -8.976562 11.410156 -9.34375 11.171875 C -9.582031 11.109375 -9.765625 10.894531 -9.890625 10.53125 C -10.066406 9.914062 -10.097656 9.242188 -9.984375 8.515625 C -9.859375 7.660156 -9.65625 6.847656 -9.375 6.078125 C -9.101562 5.316406 -8.816406 4.539062 -8.515625 3.75 C -7.847656 2.101562 -7.097656 0.488281 -6.265625 -1.09375 C -5.441406 -2.6875 -4.570312 -4.242188 -3.65625 -5.765625 C -2.4375 -7.785156 -1.15625 -9.753906 0.1875 -11.671875 C 1.53125 -13.597656 2.960938 -15.476562 4.484375 -17.3125 C 4.609375 -17.550781 4.742188 -17.773438 4.890625 -17.984375 C 5.046875 -18.203125 5.15625 -18.429688 5.21875 -18.671875 C 5.882812 -20.628906 6.523438 -22.566406 7.140625 -24.484375 C 7.753906 -26.410156 8.363281 -28.320312 8.96875 -30.21875 C 9.03125 -30.34375 9.09375 -30.476562 9.15625 -30.625 C 9.21875 -30.78125 9.21875 -30.921875 9.15625 -31.046875 C 8.914062 -30.984375 8.734375 -30.875 8.609375 -30.71875 C 8.484375 -30.5625 8.359375 -30.425781 8.234375 -30.3125 C 7.753906 -29.695312 7.238281 -29.113281 6.6875 -28.5625 C 6.132812 -28.019531 5.582031 -27.503906 5.03125 -27.015625 C 4.851562 -26.828125 4.65625 -26.65625 4.4375 -26.5 C 4.226562 -26.351562 4.03125 -26.1875 3.84375 -26 C 3.414062 -25.632812 2.894531 -25.617188 2.28125 -25.953125 C 1.675781 -26.296875 1.40625 -26.769531 1.46875 -27.375 L 1.46875 -27.921875 C 1.582031 -28.535156 1.71875 -29.101562 1.875 -29.625 C 2.03125 -30.144531 2.226562 -30.675781 2.46875 -31.21875 C 2.53125 -31.34375 2.609375 -31.460938 2.703125 -31.578125 C 2.796875 -31.703125 2.898438 -31.796875 3.015625 -31.859375 C 3.140625 -31.984375 3.234375 -31.984375 3.296875 -31.859375 C 3.421875 -31.742188 3.484375 -31.65625 3.484375 -31.59375 C 3.484375 -31.40625 3.421875 -31.25 3.296875 -31.125 C 2.929688 -30.03125 2.65625 -28.929688 2.46875 -27.828125 L 2.46875 -26.828125 C 2.46875 -26.765625 2.53125 -26.703125 2.65625 -26.640625 C 2.78125 -26.578125 2.875 -26.578125 2.9375 -26.640625 C 3.175781 -26.765625 3.382812 -26.898438 3.5625 -27.046875 C 3.75 -27.203125 3.9375 -27.34375 4.125 -27.46875 C 5.039062 -28.320312 5.863281 -29.144531 6.59375 -29.9375 C 6.957031 -30.300781 7.304688 -30.679688 7.640625 -31.078125 C 7.984375 -31.484375 8.304688 -31.867188 8.609375 -32.234375 C 8.785156 -32.472656 9.085938 -32.804688 9.515625 -33.234375 C 9.941406 -33.722656 10.429688 -33.753906 10.984375 -33.328125 C 11.234375 -33.140625 11.296875 -32.894531 11.171875 -32.59375 L 10.890625 -31.125 C 10.523438 -29.90625 10.160156 -28.65625 9.796875 -27.375 C 9.429688 -26.09375 9.066406 -24.8125 8.703125 -23.53125 C 8.640625 -23.34375 8.59375 -23.171875 8.5625 -23.015625 C 8.53125 -22.867188 8.515625 -22.707031 8.515625 -22.53125 C 8.640625 -22.46875 8.820312 -22.554688 9.0625 -22.796875 C 9.613281 -23.347656 10.160156 -23.894531 10.703125 -24.4375 C 11.253906 -24.988281 11.804688 -25.570312 12.359375 -26.1875 C 13.035156 -26.914062 13.722656 -27.613281 14.421875 -28.28125 C 15.117188 -28.957031 15.835938 -29.632812 16.578125 -30.3125 C 16.753906 -30.488281 17 -30.488281 17.3125 -30.3125 C 17.550781 -30.125 17.578125 -29.910156 17.390625 -29.671875 C 16.960938 -29.296875 16.550781 -28.910156 16.15625 -28.515625 C 15.757812 -28.117188 15.378906 -27.738281 15.015625 -27.375 C 13.859375 -26.21875 12.710938 -25.070312 11.578125 -23.9375 C 10.453125 -22.8125 9.367188 -21.640625 8.328125 -20.421875 C 7.835938 -19.804688 7.503906 -19.195312 7.328125 -18.59375 C 6.835938 -16.882812 6.332031 -15.1875 5.8125 -13.5 C 5.289062 -11.820312 4.695312 -10.191406 4.03125 -8.609375 C 3.113281 -6.285156 2.148438 -3.960938 1.140625 -1.640625 C 0.140625 0.671875 -0.972656 2.988281 -2.203125 5.3125 C -2.628906 6.101562 -3.082031 6.878906 -3.5625 7.640625 C -4.050781 8.410156 -4.601562 9.128906 -5.21875 9.796875 C -5.457031 10.035156 -5.710938 10.289062 -5.984375 10.5625 C -6.265625 10.84375 -6.5625 11.078125 -6.875 11.265625 Z M -8.15625 10.71875 C -7.84375 10.53125 -7.5625 10.296875 -7.3125 10.015625 C -7.070312 9.742188 -6.832031 9.488281 -6.59375 9.25 C -5.976562 8.570312 -5.441406 7.820312 -4.984375 7 C -4.523438 6.175781 -4.113281 5.367188 -3.75 4.578125 C -2.40625 1.953125 -1.179688 -0.6875 -0.078125 -3.34375 C 1.015625 -6 2.046875 -8.703125 3.015625 -11.453125 C 3.203125 -11.992188 3.398438 -12.523438 3.609375 -13.046875 C 3.828125 -13.566406 3.96875 -14.128906 4.03125 -14.734375 C 3.84375 -14.679688 3.71875 -14.625 3.65625 -14.5625 C 3.601562 -14.5 3.515625 -14.40625 3.390625 -14.28125 C 2.171875 -12.570312 0.96875 -10.863281 -0.21875 -9.15625 C -1.414062 -7.445312 -2.535156 -5.675781 -3.578125 -3.84375 C -4.367188 -2.320312 -5.160156 -0.785156 -5.953125 0.765625 C -6.742188 2.328125 -7.414062 3.960938 -7.96875 5.671875 C -8.332031 6.648438 -8.609375 7.71875 -8.796875 8.875 C -8.796875 9.125 -8.796875 9.382812 -8.796875 9.65625 C -8.796875 9.9375 -8.765625 10.226562 -8.703125 10.53125 C -8.578125 10.832031 -8.394531 10.894531 -8.15625 10.71875 Z M -8.15625 10.71875 "/></g></g></g><g fill="currentColor" fill-opacity="1"><g transform="translate(163.937005, 239.59363)"><g><path d="M 4.171875 0.140625 C 3.484375 0.140625 2.875 0.046875 2.34375 -0.140625 C 1.820312 -0.335938 1.316406 -0.65625 0.828125 -1.09375 C 0.628906 -1.257812 0.53125 -1.453125 0.53125 -1.671875 C 0.53125 -1.835938 0.597656 -1.988281 0.734375 -2.125 C 0.867188 -2.257812 1.023438 -2.328125 1.203125 -2.328125 C 1.359375 -2.328125 1.492188 -2.28125 1.609375 -2.1875 C 1.992188 -1.832031 2.382812 -1.570312 2.78125 -1.40625 C 3.1875 -1.238281 3.640625 -1.15625 4.140625 -1.15625 C 4.742188 -1.15625 5.25 -1.289062 5.65625 -1.5625 C 6.0625 -1.84375 6.265625 -2.191406 6.265625 -2.609375 C 6.253906 -3.097656 6.046875 -3.472656 5.640625 -3.734375 C 5.242188 -4.003906 4.640625 -4.234375 3.828125 -4.421875 C 2.847656 -4.617188 2.097656 -4.941406 1.578125 -5.390625 C 1.054688 -5.847656 0.796875 -6.476562 0.796875 -7.28125 C 0.796875 -7.832031 0.941406 -8.316406 1.234375 -8.734375 C 1.523438 -9.160156 1.929688 -9.484375 2.453125 -9.703125 C 2.972656 -9.929688 3.554688 -10.046875 4.203125 -10.046875 C 4.785156 -10.046875 5.335938 -9.953125 5.859375 -9.765625 C 6.378906 -9.578125 6.800781 -9.328125 7.125 -9.015625 C 7.34375 -8.828125 7.453125 -8.625 7.453125 -8.40625 C 7.453125 -8.238281 7.382812 -8.085938 7.25 -7.953125 C 7.125 -7.816406 6.972656 -7.75 6.796875 -7.75 C 6.660156 -7.75 6.550781 -7.789062 6.46875 -7.875 C 6.21875 -8.113281 5.875 -8.316406 5.4375 -8.484375 C 5.007812 -8.660156 4.597656 -8.75 4.203125 -8.75 C 3.566406 -8.75 3.0625 -8.617188 2.6875 -8.359375 C 2.320312 -8.097656 2.140625 -7.753906 2.140625 -7.328125 C 2.140625 -6.867188 2.320312 -6.515625 2.6875 -6.265625 C 3.0625 -6.023438 3.617188 -5.816406 4.359375 -5.640625 C 5.097656 -5.484375 5.695312 -5.296875 6.15625 -5.078125 C 6.625 -4.859375 6.984375 -4.554688 7.234375 -4.171875 C 7.492188 -3.785156 7.625 -3.28125 7.625 -2.65625 C 7.625 -2.113281 7.46875 -1.628906 7.15625 -1.203125 C 6.851562 -0.773438 6.4375 -0.441406 5.90625 -0.203125 C 5.382812 0.0234375 4.804688 0.140625 4.171875 0.140625 Z M 4.171875 0.140625 "/></g></g></g><g fill="currentColor" fill-opacity="1"><g transform="translate(183.492817, 239.59363)"><g><path d="M 2.578125 -0.6875 C 2.578125 -0.488281 2.503906 -0.320312 2.359375 -0.1875 C 2.222656 -0.0625 2.0625 0 1.875 0 C 1.664062 0 1.492188 -0.0625 1.359375 -0.1875 C 1.234375 -0.320312 1.171875 -0.488281 1.171875 -0.6875 L 1.171875 -9.234375 C 1.171875 -9.421875 1.238281 -9.578125 1.375 -9.703125 C 1.507812 -9.835938 1.675781 -9.90625 1.875 -9.90625 C 2.070312 -9.90625 2.238281 -9.835938 2.375 -9.703125 C 2.507812 -9.578125 2.578125 -9.421875 2.578125 -9.234375 Z M 2.578125 -0.6875 "/></g></g></g><g fill="currentColor" fill-opacity="1"><g transform="translate(198.56294, 239.59363)"><g><path d="M 5.140625 -9.90625 C 5.640625 -9.90625 6.097656 -9.769531 6.515625 -9.5 C 6.941406 -9.238281 7.28125 -8.875 7.53125 -8.40625 C 7.78125 -7.945312 7.90625 -7.4375 7.90625 -6.875 C 7.90625 -6.320312 7.78125 -5.804688 7.53125 -5.328125 C 7.28125 -4.859375 6.941406 -4.488281 6.515625 -4.21875 C 6.097656 -3.945312 5.640625 -3.8125 5.140625 -3.8125 L 2.484375 -3.8125 L 2.484375 -0.671875 C 2.484375 -0.484375 2.421875 -0.320312 2.296875 -0.1875 C 2.171875 -0.0625 2.015625 0 1.828125 0 C 1.628906 0 1.46875 -0.0625 1.34375 -0.1875 C 1.226562 -0.3125 1.171875 -0.472656 1.171875 -0.671875 L 1.171875 -9.234375 C 1.171875 -9.421875 1.238281 -9.578125 1.375 -9.703125 C 1.507812 -9.835938 1.671875 -9.90625 1.859375 -9.90625 Z M 5.140625 -5.09375 C 5.390625 -5.09375 5.625 -5.175781 5.84375 -5.34375 C 6.0625 -5.507812 6.234375 -5.726562 6.359375 -6 C 6.484375 -6.269531 6.546875 -6.5625 6.546875 -6.875 C 6.546875 -7.363281 6.40625 -7.773438 6.125 -8.109375 C 5.851562 -8.441406 5.523438 -8.609375 5.140625 -8.609375 L 2.484375 -8.609375 L 2.484375 -5.09375 Z M 5.140625 -5.09375 "/></g></g></g><g fill="currentColor" fill-opacity="1"><g transform="translate(90.846821, 287.774513)"><g><path d="M 8.890625 -0.609375 C 8.984375 -0.523438 9.03125 -0.421875 9.03125 -0.296875 C 9.039062 -0.179688 9.007812 -0.0820312 8.9375 0 L 5.3125 4.109375 C 5.226562 4.203125 5.125 4.25 5 4.25 C 4.882812 4.257812 4.78125 4.222656 4.6875 4.140625 C 4.582031 4.046875 4.523438 3.941406 4.515625 3.828125 C 4.515625 3.710938 4.554688 3.609375 4.640625 3.515625 L 7.40625 0.375 L 4.328125 1.203125 C 4.265625 1.210938 4.191406 1.207031 4.109375 1.1875 C 4.035156 1.175781 3.976562 1.148438 3.9375 1.109375 C 3.882812 1.066406 3.847656 1.007812 3.828125 0.9375 C 3.804688 0.863281 3.796875 0.800781 3.796875 0.75 L 4.3125 -2.484375 L 1.484375 0.71875 C 1.398438 0.8125 1.296875 0.863281 1.171875 0.875 C 1.054688 0.882812 0.953125 0.847656 0.859375 0.765625 C 0.773438 0.691406 0.734375 0.597656 0.734375 0.484375 C 0.734375 0.367188 0.773438 0.265625 0.859375 0.171875 L 4.484375 -3.9375 C 4.554688 -4.019531 4.648438 -4.066406 4.765625 -4.078125 C 4.890625 -4.097656 5.003906 -4.0625 5.109375 -3.96875 C 5.160156 -3.914062 5.203125 -3.851562 5.234375 -3.78125 C 5.265625 -3.71875 5.273438 -3.644531 5.265625 -3.5625 L 4.703125 0.296875 L 8.5 -0.703125 C 8.65625 -0.742188 8.785156 -0.710938 8.890625 -0.609375 Z M 8.890625 -0.609375 "/></g></g></g><g fill="currentColor" fill-opacity="1"><g transform="translate(102.340709, 297.389385)"><g><path d="M 7.140625 1.203125 C 6.785156 1.703125 6.359375 2.078125 5.859375 2.328125 C 5.359375 2.578125 4.832031 2.679688 4.28125 2.640625 C 3.738281 2.609375 3.234375 2.421875 2.765625 2.078125 C 2.285156 1.742188 1.9375 1.320312 1.71875 0.8125 C 1.5 0.3125 1.425781 -0.210938 1.5 -0.765625 C 1.582031 -1.316406 1.800781 -1.84375 2.15625 -2.34375 C 2.507812 -2.84375 2.9375 -3.21875 3.4375 -3.46875 C 3.9375 -3.726562 4.457031 -3.835938 5 -3.796875 C 5.550781 -3.753906 6.066406 -3.566406 6.546875 -3.234375 C 7.015625 -2.890625 7.359375 -2.46875 7.578125 -1.96875 C 7.796875 -1.46875 7.863281 -0.9375 7.78125 -0.375 C 7.707031 0.175781 7.492188 0.703125 7.140625 1.203125 Z M 6.390625 0.65625 C 6.648438 0.28125 6.8125 -0.101562 6.875 -0.5 C 6.9375 -0.90625 6.894531 -1.285156 6.75 -1.640625 C 6.613281 -2.003906 6.378906 -2.304688 6.046875 -2.546875 C 5.710938 -2.773438 5.351562 -2.898438 4.96875 -2.921875 C 4.582031 -2.941406 4.207031 -2.851562 3.84375 -2.65625 C 3.488281 -2.46875 3.179688 -2.1875 2.921875 -1.8125 C 2.660156 -1.445312 2.492188 -1.0625 2.421875 -0.65625 C 2.359375 -0.25 2.394531 0.128906 2.53125 0.484375 C 2.675781 0.847656 2.914062 1.144531 3.25 1.375 C 3.582031 1.613281 3.941406 1.742188 4.328125 1.765625 C 4.710938 1.785156 5.085938 1.695312 5.453125 1.5 C 5.816406 1.300781 6.128906 1.019531 6.390625 0.65625 Z M 6.390625 0.65625 "/></g></g></g><g fill="currentColor" fill-opacity="1"><g transform="translate(114.30729, 305.445937)"><g><path d="M 5.546875 -0.8125 C 5.765625 -0.550781 5.898438 -0.253906 5.953125 0.078125 C 6.015625 0.410156 5.9375 0.765625 5.71875 1.140625 C 5.382812 1.710938 4.976562 2.023438 4.5 2.078125 C 4.019531 2.140625 3.535156 2.03125 3.046875 1.75 L 1.03125 0.59375 C 0.914062 0.53125 0.84375 0.441406 0.8125 0.328125 C 0.789062 0.210938 0.8125 0.101562 0.875 0 L 3.59375 -4.75 C 3.65625 -4.851562 3.738281 -4.921875 3.84375 -4.953125 C 3.957031 -4.984375 4.070312 -4.96875 4.1875 -4.90625 L 6.203125 -3.75 C 6.679688 -3.476562 6.976562 -3.148438 7.09375 -2.765625 C 7.207031 -2.390625 7.140625 -1.976562 6.890625 -1.53125 C 6.742188 -1.28125 6.550781 -1.09375 6.3125 -0.96875 C 6.070312 -0.84375 5.816406 -0.789062 5.546875 -0.8125 Z M 6 -1.890625 C 6.144531 -2.128906 6.1875 -2.347656 6.125 -2.546875 C 6.070312 -2.742188 5.921875 -2.914062 5.671875 -3.0625 L 4.1875 -3.921875 L 3.3125 -2.390625 L 4.8125 -1.515625 C 5.03125 -1.398438 5.25 -1.367188 5.46875 -1.421875 C 5.6875 -1.484375 5.863281 -1.640625 6 -1.890625 Z M 3.4375 1.03125 C 3.726562 1.195312 4.003906 1.253906 4.265625 1.203125 C 4.535156 1.148438 4.753906 0.976562 4.921875 0.6875 C 5.265625 0.09375 5.101562 -0.390625 4.4375 -0.765625 L 2.890625 -1.671875 L 1.859375 0.109375 Z M 3.4375 1.03125 "/></g></g></g><g fill="currentColor" fill-opacity="1"><g transform="translate(126.102911, 311.78501)"><g><path d="M 1.6875 0.3125 C 1.632812 0.425781 1.546875 0.5 1.421875 0.53125 C 1.304688 0.5625 1.195312 0.554688 1.09375 0.515625 C 0.96875 0.453125 0.882812 0.363281 0.84375 0.25 C 0.800781 0.144531 0.804688 0.0351562 0.859375 -0.078125 L 3.1875 -5.03125 C 3.238281 -5.144531 3.320312 -5.21875 3.4375 -5.25 C 3.550781 -5.289062 3.671875 -5.28125 3.796875 -5.21875 C 3.910156 -5.164062 3.988281 -5.082031 4.03125 -4.96875 C 4.070312 -4.863281 4.066406 -4.753906 4.015625 -4.640625 Z M 1.6875 0.3125 "/></g></g></g><g fill="currentColor" fill-opacity="1"><g transform="translate(135.137005, 315.761011)"><g><path d="M 4.28125 0.703125 C 4.394531 0.742188 4.476562 0.816406 4.53125 0.921875 C 4.582031 1.035156 4.585938 1.148438 4.546875 1.265625 C 4.492188 1.378906 4.414062 1.457031 4.3125 1.5 C 4.207031 1.539062 4.097656 1.539062 3.984375 1.5 L 1.109375 0.421875 C 0.992188 0.378906 0.910156 0.300781 0.859375 0.1875 C 0.816406 0.0820312 0.816406 -0.0234375 0.859375 -0.140625 L 2.78125 -5.265625 C 2.832031 -5.378906 2.910156 -5.457031 3.015625 -5.5 C 3.117188 -5.550781 3.234375 -5.554688 3.359375 -5.515625 C 3.472656 -5.472656 3.554688 -5.394531 3.609375 -5.28125 C 3.671875 -5.175781 3.675781 -5.066406 3.625 -4.953125 L 1.84375 -0.21875 Z M 4.28125 0.703125 "/></g></g></g><g fill="currentColor" fill-opacity="1"><g transform="translate(146.925502, 319.854314)"><g><path d="M 4.40625 0.375 C 4.519531 0.40625 4.609375 0.46875 4.671875 0.5625 C 4.734375 0.664062 4.75 0.773438 4.71875 0.890625 C 4.6875 1.003906 4.617188 1.085938 4.515625 1.140625 C 4.410156 1.191406 4.300781 1.203125 4.1875 1.171875 L 1.140625 0.3125 C 1.023438 0.28125 0.9375 0.210938 0.875 0.109375 C 0.8125 0.015625 0.800781 -0.09375 0.84375 -0.21875 L 2.296875 -5.484375 C 2.335938 -5.609375 2.410156 -5.695312 2.515625 -5.75 C 2.617188 -5.8125 2.726562 -5.828125 2.84375 -5.796875 L 5.890625 -4.9375 C 6.003906 -4.90625 6.09375 -4.84375 6.15625 -4.75 C 6.21875 -4.65625 6.234375 -4.546875 6.203125 -4.421875 C 6.160156 -4.304688 6.085938 -4.222656 5.984375 -4.171875 C 5.890625 -4.117188 5.785156 -4.109375 5.671875 -4.140625 L 3.078125 -4.875 L 2.578125 -3.078125 L 4.78125 -2.453125 C 4.894531 -2.421875 4.984375 -2.359375 5.046875 -2.265625 C 5.109375 -2.171875 5.125 -2.066406 5.09375 -1.953125 C 5.050781 -1.828125 4.976562 -1.738281 4.875 -1.6875 C 4.78125 -1.644531 4.675781 -1.640625 4.5625 -1.671875 L 2.359375 -2.296875 L 1.8125 -0.359375 Z M 4.40625 0.375 "/></g></g></g><g fill="currentColor" fill-opacity="1"><g transform="translate(159.184749, 322.905473)"><g/></g></g><g fill="currentColor" fill-opacity="1"><g transform="translate(169.03437, 324.576031)"><g><path d="M 4.734375 -2.96875 C 5.054688 -2.820312 5.304688 -2.601562 5.484375 -2.3125 C 5.671875 -2.019531 5.742188 -1.660156 5.703125 -1.234375 C 5.628906 -0.578125 5.378906 -0.128906 4.953125 0.109375 C 4.535156 0.347656 4.050781 0.441406 3.5 0.390625 L 1.1875 0.125 C 1.0625 0.113281 0.960938 0.0625 0.890625 -0.03125 C 0.816406 -0.125 0.785156 -0.234375 0.796875 -0.359375 L 1.390625 -5.796875 C 1.410156 -5.921875 1.460938 -6.019531 1.546875 -6.09375 C 1.640625 -6.164062 1.75 -6.195312 1.875 -6.1875 L 4.1875 -5.921875 C 4.726562 -5.867188 5.128906 -5.691406 5.390625 -5.390625 C 5.648438 -5.085938 5.75 -4.679688 5.6875 -4.171875 C 5.65625 -3.878906 5.554688 -3.628906 5.390625 -3.421875 C 5.222656 -3.210938 5.003906 -3.0625 4.734375 -2.96875 Z M 4.734375 -4.125 C 4.765625 -4.40625 4.710938 -4.625 4.578125 -4.78125 C 4.453125 -4.945312 4.25 -5.046875 3.96875 -5.078125 L 2.25 -5.265625 L 2.0625 -3.515625 L 3.796875 -3.328125 C 4.046875 -3.316406 4.253906 -3.375 4.421875 -3.5 C 4.597656 -3.632812 4.703125 -3.84375 4.734375 -4.125 Z M 3.578125 -0.453125 C 3.898438 -0.410156 4.171875 -0.460938 4.390625 -0.609375 C 4.609375 -0.753906 4.738281 -1 4.78125 -1.34375 C 4.851562 -2.019531 4.515625 -2.398438 3.765625 -2.484375 L 1.96875 -2.671875 L 1.75 -0.640625 Z M 3.578125 -0.453125 "/></g></g></g><g fill="currentColor" fill-opacity="1"><g transform="translate(182.416286, 325.685844)"><g><path d="M 5.640625 -0.484375 C 5.648438 -0.429688 5.65625 -0.375 5.65625 -0.3125 C 5.65625 -0.1875 5.613281 -0.0820312 5.53125 0 C 5.445312 0.0703125 5.351562 0.109375 5.25 0.109375 C 5.164062 0.109375 5.085938 0.0820312 5.015625 0.03125 C 4.941406 -0.0195312 4.882812 -0.09375 4.84375 -0.1875 L 4.3125 -1.53125 L 1.515625 -1.578125 L 0.9375 -0.234375 C 0.90625 -0.148438 0.851562 -0.0820312 0.78125 -0.03125 C 0.71875 0.0195312 0.640625 0.046875 0.546875 0.046875 C 0.421875 0.0351562 0.320312 0 0.25 -0.0625 C 0.1875 -0.132812 0.15625 -0.226562 0.15625 -0.34375 C 0.15625 -0.363281 0.164062 -0.410156 0.1875 -0.484375 L 2.59375 -6.0625 C 2.632812 -6.15625 2.691406 -6.222656 2.765625 -6.265625 C 2.835938 -6.316406 2.921875 -6.335938 3.015625 -6.328125 C 3.109375 -6.328125 3.191406 -6.300781 3.265625 -6.25 C 3.335938 -6.195312 3.390625 -6.128906 3.421875 -6.046875 Z M 1.859375 -2.390625 L 3.96875 -2.359375 L 2.953125 -4.90625 Z M 1.859375 -2.390625 "/></g></g></g><g fill="currentColor" fill-opacity="1"><g transform="translate(195.746491, 325.5344)"><g><path d="M 5.5 -1.171875 C 5.570312 -1.128906 5.628906 -1.078125 5.671875 -1.015625 C 5.710938 -0.960938 5.734375 -0.90625 5.734375 -0.84375 C 5.742188 -0.71875 5.707031 -0.617188 5.625 -0.546875 C 5.550781 -0.472656 5.457031 -0.4375 5.34375 -0.4375 C 5.226562 -0.425781 5.132812 -0.441406 5.0625 -0.484375 C 4.863281 -0.578125 4.695312 -0.734375 4.5625 -0.953125 C 4.425781 -1.171875 4.34375 -1.503906 4.3125 -1.953125 C 4.28125 -2.253906 4.171875 -2.460938 3.984375 -2.578125 C 3.796875 -2.703125 3.554688 -2.753906 3.265625 -2.734375 L 1.453125 -2.59375 L 1.625 -0.578125 C 1.632812 -0.453125 1.601562 -0.34375 1.53125 -0.25 C 1.46875 -0.15625 1.378906 -0.109375 1.265625 -0.109375 C 1.117188 -0.0859375 0.992188 -0.113281 0.890625 -0.1875 C 0.785156 -0.269531 0.726562 -0.375 0.71875 -0.5 L 0.28125 -5.953125 C 0.269531 -6.078125 0.300781 -6.179688 0.375 -6.265625 C 0.445312 -6.359375 0.546875 -6.410156 0.671875 -6.421875 L 3.203125 -6.625 C 3.523438 -6.65625 3.828125 -6.597656 4.109375 -6.453125 C 4.398438 -6.316406 4.640625 -6.113281 4.828125 -5.84375 C 5.015625 -5.570312 5.125 -5.265625 5.15625 -4.921875 C 5.1875 -4.578125 5.117188 -4.253906 4.953125 -3.953125 C 4.796875 -3.648438 4.582031 -3.410156 4.3125 -3.234375 C 4.539062 -3.140625 4.726562 -3 4.875 -2.8125 C 5.019531 -2.625 5.109375 -2.390625 5.140625 -2.109375 C 5.203125 -1.765625 5.25 -1.535156 5.28125 -1.421875 C 5.320312 -1.304688 5.394531 -1.222656 5.5 -1.171875 Z M 3.4375 -3.5 C 3.582031 -3.53125 3.71875 -3.601562 3.84375 -3.71875 C 3.976562 -3.84375 4.082031 -4 4.15625 -4.1875 C 4.226562 -4.382812 4.253906 -4.597656 4.234375 -4.828125 C 4.210938 -5.117188 4.101562 -5.359375 3.90625 -5.546875 C 3.707031 -5.734375 3.484375 -5.816406 3.234375 -5.796875 L 1.21875 -5.640625 L 1.390625 -3.34375 Z M 3.4375 -3.5 "/></g></g></g><g fill="currentColor" fill-opacity="1"><g transform="translate(209.339929, 324.068253)"><g><path d="M 3.671875 -7.09375 C 3.804688 -7.113281 3.921875 -7.09375 4.015625 -7.03125 C 4.109375 -6.976562 4.164062 -6.882812 4.1875 -6.75 C 4.207031 -6.625 4.1875 -6.519531 4.125 -6.4375 C 4.0625 -6.351562 3.960938 -6.300781 3.828125 -6.28125 L 2.25 -6 L 3.125 -1 C 3.144531 -0.875 3.117188 -0.757812 3.046875 -0.65625 C 2.972656 -0.5625 2.875 -0.503906 2.75 -0.484375 C 2.613281 -0.460938 2.492188 -0.484375 2.390625 -0.546875 C 2.296875 -0.617188 2.238281 -0.71875 2.21875 -0.84375 L 1.34375 -5.84375 L -0.25 -5.5625 C -0.375 -5.539062 -0.476562 -5.554688 -0.5625 -5.609375 C -0.65625 -5.671875 -0.710938 -5.765625 -0.734375 -5.890625 C -0.753906 -6.015625 -0.734375 -6.117188 -0.671875 -6.203125 C -0.617188 -6.296875 -0.53125 -6.351562 -0.40625 -6.375 Z M 3.671875 -7.09375 "/></g></g></g><g fill="currentColor" fill-opacity="1"><g transform="translate(222.165842, 321.444611)"><g><path d="M 3.96875 -1.9375 C 4.09375 -1.96875 4.203125 -1.953125 4.296875 -1.890625 C 4.398438 -1.835938 4.46875 -1.753906 4.5 -1.640625 C 4.53125 -1.523438 4.515625 -1.421875 4.453125 -1.328125 C 4.398438 -1.234375 4.3125 -1.171875 4.1875 -1.140625 L 1.140625 -0.3125 C 1.023438 -0.28125 0.914062 -0.289062 0.8125 -0.34375 C 0.707031 -0.40625 0.640625 -0.5 0.609375 -0.625 L -0.828125 -5.90625 C -0.859375 -6.019531 -0.84375 -6.128906 -0.78125 -6.234375 C -0.726562 -6.335938 -0.644531 -6.40625 -0.53125 -6.4375 L 2.515625 -7.265625 C 2.640625 -7.296875 2.75 -7.28125 2.84375 -7.21875 C 2.945312 -7.164062 3.015625 -7.082031 3.046875 -6.96875 C 3.085938 -6.84375 3.078125 -6.734375 3.015625 -6.640625 C 2.953125 -6.554688 2.859375 -6.5 2.734375 -6.46875 L 0.140625 -5.765625 L 0.640625 -3.96875 L 2.84375 -4.5625 C 2.96875 -4.59375 3.078125 -4.582031 3.171875 -4.53125 C 3.265625 -4.476562 3.328125 -4.398438 3.359375 -4.296875 C 3.398438 -4.160156 3.390625 -4.046875 3.328125 -3.953125 C 3.265625 -3.867188 3.171875 -3.8125 3.046875 -3.78125 L 0.84375 -3.1875 L 1.375 -1.234375 Z M 3.96875 -1.9375 "/></g></g></g><g fill="currentColor" fill-opacity="1"><g transform="translate(234.310053, 317.805434)"><g><path d="M 2.890625 -7.875 C 3.015625 -7.914062 3.117188 -7.914062 3.203125 -7.875 C 3.296875 -7.832031 3.363281 -7.753906 3.40625 -7.640625 L 5.34375 -2.484375 C 5.382812 -2.367188 5.382812 -2.253906 5.34375 -2.140625 C 5.300781 -2.035156 5.222656 -1.960938 5.109375 -1.921875 C 5.035156 -1.898438 4.96875 -1.882812 4.90625 -1.875 C 4.84375 -1.875 4.785156 -1.882812 4.734375 -1.90625 L -0.234375 -5 L 1.3125 -0.921875 C 1.351562 -0.816406 1.347656 -0.710938 1.296875 -0.609375 C 1.253906 -0.515625 1.175781 -0.445312 1.0625 -0.40625 C 0.957031 -0.363281 0.859375 -0.363281 0.765625 -0.40625 C 0.671875 -0.457031 0.601562 -0.535156 0.5625 -0.640625 L -1.375 -5.796875 C -1.425781 -5.910156 -1.425781 -6.019531 -1.375 -6.125 C -1.320312 -6.238281 -1.242188 -6.3125 -1.140625 -6.34375 C -1.066406 -6.375 -0.992188 -6.390625 -0.921875 -6.390625 C -0.847656 -6.390625 -0.785156 -6.375 -0.734375 -6.34375 L 4.21875 -3.25 L 2.671875 -7.359375 C 2.628906 -7.472656 2.628906 -7.578125 2.671875 -7.671875 C 2.710938 -7.765625 2.785156 -7.832031 2.890625 -7.875 Z M 2.890625 -7.875 "/></g></g></g><g fill="currentColor" fill-opacity="1"><g transform="translate(247.419051, 312.457315)"><g><path d="M 0.25 -7.203125 C 0.757812 -7.453125 1.253906 -7.535156 1.734375 -7.453125 C 2.222656 -7.378906 2.664062 -7.171875 3.0625 -6.828125 C 3.457031 -6.492188 3.785156 -6.066406 4.046875 -5.546875 C 4.304688 -5.015625 4.453125 -4.488281 4.484375 -3.96875 C 4.515625 -3.445312 4.410156 -2.96875 4.171875 -2.53125 C 3.941406 -2.101562 3.570312 -1.765625 3.0625 -1.515625 L 1.0625 -0.53125 C 0.945312 -0.46875 0.832031 -0.453125 0.71875 -0.484375 C 0.613281 -0.523438 0.535156 -0.601562 0.484375 -0.71875 L -1.953125 -5.625 C -2.003906 -5.726562 -2.007812 -5.835938 -1.96875 -5.953125 C -1.9375 -6.066406 -1.863281 -6.15625 -1.75 -6.21875 Z M 2.609375 -2.21875 C 3.160156 -2.488281 3.476562 -2.890625 3.5625 -3.421875 C 3.644531 -3.953125 3.535156 -4.523438 3.234375 -5.140625 C 2.929688 -5.742188 2.539062 -6.171875 2.0625 -6.421875 C 1.582031 -6.679688 1.070312 -6.679688 0.53125 -6.421875 L -0.96875 -5.671875 L 1.109375 -1.46875 Z M 2.609375 -2.21875 "/></g></g></g><g fill="currentColor" fill-opacity="1"><g transform="translate(259.75868, 305.894907)"><g><path d="M 1.203125 -1.234375 C 1.265625 -1.128906 1.273438 -1.015625 1.234375 -0.890625 C 1.191406 -0.773438 1.125 -0.6875 1.03125 -0.625 C 0.914062 -0.550781 0.800781 -0.53125 0.6875 -0.5625 C 0.570312 -0.59375 0.484375 -0.660156 0.421875 -0.765625 L -2.421875 -5.4375 C -2.484375 -5.550781 -2.5 -5.660156 -2.46875 -5.765625 C -2.4375 -5.878906 -2.363281 -5.972656 -2.25 -6.046875 C -2.144531 -6.109375 -2.03125 -6.128906 -1.90625 -6.109375 C -1.789062 -6.085938 -1.703125 -6.019531 -1.640625 -5.90625 Z M 1.203125 -1.234375 "/></g></g></g><g fill="currentColor" fill-opacity="1"><g transform="translate(268.09828, 300.582097)"><g><path d="M 0.703125 -8.359375 C 0.804688 -8.429688 0.90625 -8.457031 1 -8.4375 C 1.09375 -8.414062 1.175781 -8.351562 1.25 -8.25 L 4.5 -3.8125 C 4.570312 -3.707031 4.597656 -3.597656 4.578125 -3.484375 C 4.566406 -3.367188 4.507812 -3.273438 4.40625 -3.203125 C 4.351562 -3.160156 4.296875 -3.128906 4.234375 -3.109375 C 4.171875 -3.085938 4.109375 -3.082031 4.046875 -3.09375 L -1.546875 -4.765625 L 1.015625 -1.234375 C 1.078125 -1.140625 1.097656 -1.035156 1.078125 -0.921875 C 1.066406 -0.816406 1.015625 -0.734375 0.921875 -0.671875 C 0.828125 -0.597656 0.726562 -0.570312 0.625 -0.59375 C 0.519531 -0.613281 0.4375 -0.671875 0.375 -0.765625 L -2.859375 -5.21875 C -2.929688 -5.3125 -2.957031 -5.414062 -2.9375 -5.53125 C -2.925781 -5.65625 -2.875 -5.75 -2.78125 -5.8125 C -2.726562 -5.851562 -2.664062 -5.882812 -2.59375 -5.90625 C -2.519531 -5.925781 -2.453125 -5.925781 -2.390625 -5.90625 L 3.21875 -4.25 L 0.625 -7.796875 C 0.550781 -7.898438 0.519531 -8 0.53125 -8.09375 C 0.550781 -8.195312 0.609375 -8.285156 0.703125 -8.359375 Z M 0.703125 -8.359375 "/></g></g></g><g fill="currentColor" fill-opacity="1"><g transform="translate(279.315783, 291.946848)"><g><path d="M 1.8125 -6.078125 C 1.90625 -6.160156 2.007812 -6.195312 2.125 -6.1875 C 2.25 -6.1875 2.347656 -6.144531 2.421875 -6.0625 L 3.78125 -4.53125 C 3.894531 -4.40625 3.925781 -4.257812 3.875 -4.09375 C 3.789062 -3.78125 3.65625 -3.472656 3.46875 -3.171875 C 3.289062 -2.878906 3.066406 -2.613281 2.796875 -2.375 C 2.347656 -1.976562 1.835938 -1.71875 1.265625 -1.59375 C 0.703125 -1.476562 0.148438 -1.507812 -0.390625 -1.6875 C -0.941406 -1.875 -1.414062 -2.191406 -1.8125 -2.640625 C -2.207031 -3.078125 -2.460938 -3.578125 -2.578125 -4.140625 C -2.703125 -4.710938 -2.671875 -5.273438 -2.484375 -5.828125 C -2.304688 -6.378906 -1.992188 -6.851562 -1.546875 -7.25 C -1.316406 -7.457031 -1.070312 -7.628906 -0.8125 -7.765625 C -0.5625 -7.898438 -0.304688 -7.988281 -0.046875 -8.03125 C 0.0351562 -8.050781 0.109375 -8.050781 0.171875 -8.03125 C 0.234375 -8.007812 0.289062 -7.972656 0.34375 -7.921875 C 0.425781 -7.828125 0.460938 -7.71875 0.453125 -7.59375 C 0.453125 -7.476562 0.410156 -7.382812 0.328125 -7.3125 C 0.253906 -7.25 0.179688 -7.210938 0.109375 -7.203125 C -0.296875 -7.078125 -0.65625 -6.878906 -0.96875 -6.609375 C -1.28125 -6.328125 -1.5 -5.984375 -1.625 -5.578125 C -1.757812 -5.179688 -1.78125 -4.773438 -1.6875 -4.359375 C -1.601562 -3.953125 -1.414062 -3.585938 -1.125 -3.265625 C -0.832031 -2.929688 -0.484375 -2.691406 -0.078125 -2.546875 C 0.316406 -2.410156 0.71875 -2.382812 1.125 -2.46875 C 1.539062 -2.550781 1.90625 -2.734375 2.21875 -3.015625 C 2.375 -3.160156 2.519531 -3.328125 2.65625 -3.515625 C 2.800781 -3.703125 2.90625 -3.875 2.96875 -4.03125 L 2.015625 -5.109375 L 1.203125 -4.375 C 1.117188 -4.300781 1.015625 -4.265625 0.890625 -4.265625 C 0.765625 -4.273438 0.660156 -4.328125 0.578125 -4.421875 C 0.492188 -4.515625 0.457031 -4.617188 0.46875 -4.734375 C 0.488281 -4.847656 0.539062 -4.941406 0.625 -5.015625 Z M 1.8125 -6.078125 "/></g></g></g></svg>